[img]http://i.imgur.com/d7hip.jpg[/img]

[code]

Confession.Of.A.Child.Of.The.Century.2012.720p.WEBRip.XViD.AC3-26k
 
http://www.imdb.com/title/tt1865335/Plot:

Paris, 1830: Octave, betrayed by his mistress, sinks into despair and debauchery. His father's death 
leads him to the country where he meets Brigitte, a widow who is ten years his elder. Octave falls in 
love passionately, but will he have the courage to believe in it?

Sources - VIDEO: Confession.Of.A.Child.Of.The.Century.2012.1080p.WEB-DL.X264.Ac3-Blackjesus ..... thanks .... :P
          AUDIO: Confession.Of.A.Child.Of.The.Century.2012.1080p.WEB-DL.X264.Ac3-Blackjesus ..... thanks .... :P

Format                                   : AVI
Format/Info                              : Audio Video Interleave
Format profile                           : OpenDML
File size                                : 3.06 GiB
Duration                                 : 2h 0mn
Overall bit rate                         : 3 649 Kbps
Writing library                          : VirtualDub build 32839/release

Video
ID                                       : 0
Format                                   : MPEG-4 Visual
Format profile                           : Advanced Simple@L5
Format settings, BVOP                    : 2
Format settings, QPel                    : No
Format settings, GMC                     : No warppoints
Format settings, Matrix                  : Default (H.263)
Codec ID                                 : XVID
Codec ID/Hint                            : XviD
Duration                                 : 2h 0mn
Bit rate                                 : 3 255 Kbps
Width                                    : 1 280 pixels
Height                                   : 560 pixels
Display aspect ratio                     : 2.25:1
Frame rate                               : 24.000 fps
Color space                              : YUV
Chroma subsampling                       : 4:2:0
Bit depth                                : 8 bits
Scan type                                : Progressive
Compression mode                         : Lossy
Bits/(Pixel*Frame)                       : 0.189
Stream size                              : 2.73 GiB (89%)
Writing library                          : XviD 1.2.1 (UTC 2008-12-04)

Audio
ID                                       : 1
Format                                   : AC-3
Format/Info                              : Audio Coding 3
Mode extension                           : CM (complete main)
Format settings, Endianness              : Big
Codec ID                                 : 2000
Duration                                 : 2h 0mn
Bit rate mode                            : Constant
Bit rate                                 : 384 Kbps
Channel(s)                               : 6 channels
Channel positions                        : Front: L C R, Side: L R, LFE
Sampling rate                            : 48.0 KHz
Bit depth                                : 16 bits
Compression mode                         : Lossy
Stream size                              : 330 MiB (11%)
Alignment                                : Split accross interleaves
Interleave, duration                     : 42 ms (1.00 video frame)
Interleave, preload duration             : 500 ms

Notes -

Took the WEB DL made a script to make magic happen and this is the outcome.. enjoy

[/code]

Screens:
[img]http://i.imgur.com/WEjEr.png[/img]
[img]http://i.imgur.com/vNzos.jpg[/img]
[img]http://i.imgur.com/KwtIE.png[/img]
[img]http://i.imgur.com/HiBZr.png[/img]
[img]http://i.imgur.com/gWSeH.jpg[/img]
[img]http://imageshack.us/a/img203/4184/24244270.png[/img]
[img]http://imageshack.us/a/img20/8887/57359400.png[/img]
[img]http://imageshack.us/a/img203/804/24732085.png[/img]
[img]http://imageshack.us/a/img51/3033/48137014.png[/img]
[img]http://imageshack.us/a/img171/7070/36536152.png[/img]

Greetz:
XtremeEncode|CM8|RX|VISION|HDSCENE|xTriLL|ADTRG|CRYS|REMIXHD|HS|Tommiecook
BIDA|RX|REFILL|INSPiRAL|AXED|HOPE|Anonymous|GooN|NOIR|Blackjesus|Gabroo Punjab Deh
|UNiQUE|RESiSTANCE|TRiNiTY|LEGION

To all the people who have helped me, you know who you are

Anything to offer email us @: 26k@hushmail.me 